<svg id="Layer_4" data-name="Layer 4" xmlns="http://www.w3.org/2000/svg" xmlns:xlink="http://www.w3.org/1999/xlink" viewBox="0 0 482.35 153.86"><defs><style>.cls-1{fill:url(#linear-gradient);}.cls-2{fill:#fff;}</style><linearGradient id="linear-gradient" x1="26.95" y1="97.75" x2="165.82" y2="97.75" gradientTransform="matrix(1, 0, 0, -1, 0, 194)" gradientUnits="userSpaceOnUse"><stop offset="0" stop-color="#84abe5"/><stop offset="1" stop-color="#39c9e1"/></linearGradient></defs><path class="cls-1" d="M42.7,153.3a15.76,15.76,0,0,1-14.36-22.23A85,85,0,0,0,35.85,96a85,85,0,0,0-7.47-35A15.77,15.77,0,0,1,57.12,48,116.27,116.27,0,0,1,67.36,96a116.13,116.13,0,0,1-10.29,48A15.73,15.73,0,0,1,42.7,153.3ZM155.53,144a117.37,117.37,0,0,0,.05-96,15.75,15.75,0,1,0-28.74,12.91,85.87,85.87,0,0,1,0,70.16A15.75,15.75,0,1,0,155,145.27C155.17,144.86,155.36,144.43,155.53,144Zm-54.37,19.73A164.51,164.51,0,0,0,116,95.09a164.58,164.58,0,0,0-13.94-66.64A15.76,15.76,0,0,0,73.21,41.13a133.16,133.16,0,0,1,11.28,54,133,133,0,0,1-12,55.58A15.76,15.76,0,1,0,101,164.12a3.54,3.54,0,0,0,.16-.34Z" transform="translate(-26.95 -19.32)"/><path class="cls-2" d="M244.18,86.7c12.79,2.9,16,10.49,16,17.65,0,11.09-8.36,19.36-25.24,19.36-17.74,0-25.67-8.87-25.67-15.52a5.62,5.62,0,0,1,5.43-5.8,3.38,3.38,0,0,1,.45,0c7.59,0,5.63,11.09,19.79,11.09,7.24,0,11.25-4,11.25-8.1,0-2.47-1.19-5.2-6-6.4l-15.77-4c-12.71-3.24-15-10.23-15-16.8,0-13.64,12.62-18.76,24.47-18.76,10.92,0,23.8,6.14,23.8,14.33,0,3.5-3,5.54-6.4,5.54-6.48,0-5.29-9.12-18.34-9.12-6.48,0-10.06,3-10.06,7.25S228,83,232.44,84.07Z" transform="translate(-26.95 -19.32)"/><path class="cls-2" d="M273.94,59.41a6.48,6.48,0,1,1-6.49,6.48,6.48,6.48,0,0,1,6.49-6.48Zm-6.23,23.37c0-3.33,1.37-6.23,6.23-6.23s6.22,2.9,6.22,6.23v34.37c0,3.32-1.36,6.22-6.22,6.22s-6.23-2.9-6.23-6.22Z" transform="translate(-26.95 -19.32)"/><path class="cls-2" d="M288.86,82.78c0-3.75,2.22-6.23,5.88-6.23s5.89,2.48,5.89,6.23V84.4h.17a17.56,17.56,0,0,1,15-7.85,12.4,12.4,0,0,1,11.94,7.85c3.5-4.86,7.93-7.85,14.67-7.85,8.61,0,15.52,3.93,15.52,15.1v25.5c0,3.32-1.37,6.22-6.23,6.22s-6.22-2.9-6.22-6.22V94.8c0-4.43-2-8-6.83-8s-9,3.83-9,9.63v20.73c0,3.32-1.36,6.22-6.22,6.22s-6.23-2.9-6.23-6.22V94.8c0-4.43-2-8-6.82-8s-9,3.83-9,9.63v20.73c0,3.32-1.36,6.22-6.23,6.22s-6.22-2.9-6.22-6.22Z" transform="translate(-26.95 -19.32)"/><path class="cls-2" d="M366,82.44c0-3.84,1.79-5.89,5.63-5.89,3.67,0,5.63,2,5.63,5.89v2h.17c2-5.29,7.08-7.85,13.13-7.85,10.41,0,19.53,7.59,19.53,23.71,0,11.94-6,23.11-19.19,23.11-5.71,0-10-2.3-12.28-6.31h-.17v16.63c0,4.1-2.47,6.23-6.22,6.23s-6.23-2.13-6.23-6.23Zm21.75,3.84c-7.25,0-10,6.48-10,13.55,0,6.4,2.39,13.91,10,13.82,7.93,0,9.89-8,9.89-13.82-.05-7.33-3.29-13.38-9.94-13.55Z" transform="translate(-26.95 -19.32)"/><path class="cls-2" d="M419.42,85.85h-2.13c-3.5,0-5-1.37-5-4.09s1.45-4.1,5-4.1h2.13V70.07c0-4.09,2.47-6.22,6.22-6.22s6.23,2.13,6.23,6.22v7.59h3.75c3.67,0,5.63,1.11,5.63,4.1s-2,4.09-5.63,4.09h-3.75v24.9c0,1.88,1,2.9,3.24,2.9h1.79c2.73,0,4.35,1.54,4.35,4.18,0,3.58-3.07,5.54-9,5.54-9,0-12.79-3.75-12.79-11.08Z" transform="translate(-26.95 -19.32)"/><path class="cls-2" d="M456.43,102.31c0,6.56,4.26,11.34,11.51,11.34,9.38,0,9.38-6.14,14.41-6.14a5.14,5.14,0,0,1,5.12,4.86c0,7.51-12,11-19.53,11-17.4,0-24-11.77-24-22.6,0-14.49,8.78-24.22,23.53-24.22C481.84,76.55,490,86.7,490,96.94c0,4.26-1.28,5.37-5.46,5.37Zm21.83-7.17c-.68-5.71-4.95-9.89-10.49-9.89-6.23,0-10,3.84-11.34,9.89Z" transform="translate(-26.95 -19.32)"/><path class="cls-2" d="M496.85,66c0-4.1,2.47-6.23,6.22-6.23S509.3,61.9,509.3,66v51.17c0,4.09-2.47,6.22-6.23,6.22s-6.22-2.13-6.22-6.22Z" transform="translate(-26.95 -19.32)"/></svg>