<svg xmlns="http://www.w3.org/2000/svg" xmlns:xlink="http://www.w3.org/1999/xlink" viewBox="0 0 482.3506 153.9322"><defs><style>.b2aa1216-dce3-454e-9151-cff408322c7e{fill:url(#a949ebad-454f-487b-a6a6-9e6ab9fda387);}.f310b0f0-1213-42f7-9fa9-18ddbc4e6e8c{fill:#333;}</style><linearGradient id="a949ebad-454f-487b-a6a6-9e6ab9fda387" y1="76.9661" x2="138.8725" y2="76.9661" gradientUnits="userSpaceOnUse"><stop offset="0" stop-color="#84abe5"></stop><stop offset="1" stop-color="#39c9e1"></stop></linearGradient></defs><g id="ec6e78af-044c-4f6e-936c-74774a21073a" data-name="Layer 2"><g id="add04a8a-9714-49af-b21f-a59ed6b14403" data-name="Layer 4"><path class="b2aa1216-dce3-454e-9151-cff408322c7e" d="M15.7493,134.2681A15.7643,15.7643,0,0,1,1.394,112.038a84.96,84.96,0,0,0,7.5085-35.12A84.9278,84.9278,0,0,0,1.4306,41.88,15.7548,15.7548,0,1,1,30.1719,28.9654,116.2066,116.2066,0,0,1,40.4133,76.9182,116.2444,116.2444,0,0,1,30.1238,124.98,15.7578,15.7578,0,0,1,15.7493,134.2681ZM128.583,124.98a117.3874,117.3874,0,0,0,.0481-96.0143A15.7548,15.7548,0,1,0,99.89,41.88a85.8884,85.8884,0,0,1-.0365,70.1578,15.755,15.755,0,1,0,28.73,12.9417ZM74.2108,144.7053A164.4416,164.4416,0,0,0,89.0546,76.0562,164.5963,164.5963,0,0,0,75.1128,9.42,15.7559,15.7559,0,0,0,46.2638,22.098a133.2511,133.2511,0,0,1,11.28,53.9582,133.1307,133.1307,0,0,1-12.0089,55.5843,15.7559,15.7559,0,1,0,28.6759,13.0648Z"></path><path class="f310b0f0-1213-42f7-9fa9-18ddbc4e6e8c" d="M217.2266,67.6677c12.7925,2.9,16.0332,10.49,16.0332,17.6533,0,11.0869-8.3579,19.3589-25.2436,19.3589-17.7383,0-25.6695-8.8691-25.6695-15.521A5.6207,5.6207,0,0,1,188.231,83.36c7.59,0,5.6284,11.0864,19.7852,11.0864,7.249,0,11.2573-4.0078,11.2573-8.1016,0-2.4731-1.1938-5.2021-5.97-6.396L197.5269,75.94c-12.707-3.2407-15.01-10.2338-15.01-16.8,0-13.6451,12.6215-18.7623,24.476-18.7623,10.916,0,23.7935,6.1407,23.7935,14.3277,0,3.4966-2.9849,5.543-6.3965,5.543-6.481,0-5.2871-9.125-18.3355-9.125-6.4814,0-10.0629,2.9848-10.0629,7.249s5.1167,5.6284,9.5512,6.6518Z"></path><path class="f310b0f0-1213-42f7-9fa9-18ddbc4e6e8c" d="M246.9874,40.3776a6.4815,6.4815,0,1,1-6.482,6.4815A6.4787,6.4787,0,0,1,246.9874,40.3776Zm-6.2261,23.3672c0-3.3256,1.3647-6.2256,6.2261-6.2256s6.2256,2.9,6.2256,6.2256V98.1135c0,3.3257-1.3643,6.2256-6.2256,6.2256s-6.2261-2.9-6.2261-6.2256Z"></path><path class="f310b0f0-1213-42f7-9fa9-18ddbc4e6e8c" d="M261.91,63.7448c0-3.7524,2.2178-6.2256,5.8848-6.2256s5.8847,2.4732,5.8847,6.2256v1.6206h.17a17.5541,17.5541,0,0,1,15.01-7.8462,12.4077,12.4077,0,0,1,11.94,7.8462c3.4971-4.8613,7.9316-7.8462,14.6689-7.8462,8.6133,0,15.52,3.9229,15.52,15.0948V98.1135c0,3.3257-1.3642,6.2256-6.2255,6.2256s-6.2256-2.9-6.2256-6.2256V75.77c0-4.4345-1.961-8.0166-6.8223-8.0166-4.7754,0-9.04,3.8379-9.04,9.6368V98.1135c0,3.3257-1.3643,6.2256-6.2256,6.2256s-6.2256-2.9-6.2256-6.2256V75.77c0-4.4345-1.9609-8.0166-6.8223-8.0166-4.7754,0-9.04,3.8379-9.04,9.6368V98.1135c0,3.3257-1.3643,6.2256-6.2256,6.2256s-6.2256-2.9-6.2256-6.2256Z"></path><path class="f310b0f0-1213-42f7-9fa9-18ddbc4e6e8c" d="M339.001,63.404c0-3.8379,1.7911-5.8848,5.6289-5.8848,3.667,0,5.628,2.0469,5.628,5.8848v1.9614h.1709c2.0468-5.2876,7.0781-7.8462,13.1338-7.8462,10.4043,0,19.5293,7.59,19.5293,23.7085,0,11.9395-6.0557,23.1114-19.1885,23.1114-5.7139,0-9.9785-2.3028-12.28-6.3111h-.1709v16.63c0,4.0933-2.4736,6.2256-6.2256,6.2256s-6.2256-2.1323-6.2256-6.2256Zm21.7471,3.8374c-7.249,0-9.9785,6.4815-9.9785,13.56,0,6.3965,2.3877,13.9009,9.9785,13.8159,7.9307,0,9.8926-8.0166,9.8926-13.8159C370.6407,73.467,367.4,67.4118,360.7481,67.2414Z"></path><path class="f310b0f0-1213-42f7-9fa9-18ddbc4e6e8c" d="M392.47,66.8151H390.337c-3.4961,0-4.9463-1.3647-4.9463-4.0937s1.45-4.0933,4.9463-4.0933H392.47v-7.59c0-4.0933,2.4726-6.2256,6.2246-6.2256s6.2256,2.1323,6.2256,6.2256v7.59h3.7529c3.667,0,5.6289,1.1084,5.6289,4.0933s-1.9619,4.0937-5.6289,4.0937H404.92V91.717c0,1.8765,1.0234,2.9,3.2412,2.9h1.791c2.7285,0,4.35,1.5352,4.35,4.1787,0,3.5816-3.07,5.5435-9.04,5.5435-9.04,0-12.792-3.7525-12.792-11.0869Z"></path><path class="f310b0f0-1213-42f7-9fa9-18ddbc4e6e8c" d="M429.4786,83.2741c0,6.5669,4.2636,11.3428,11.5127,11.3428,9.3808,0,9.3808-6.1406,14.4121-6.1406a5.1436,5.1436,0,0,1,5.1172,4.8613c0,7.5049-12.0244,11.0015-19.5293,11.0015-17.3975,0-23.9639-11.7691-23.9639-22.6,0-14.4981,8.7842-24.22,23.5371-24.22,14.3272,0,22.5147,10.1485,22.5147,20.3824,0,4.2641-1.2793,5.3725-5.458,5.3725Zm21.832-7.1635c-.6826-5.7139-4.9463-9.8926-10.49-9.8926-6.2256,0-9.9776,3.8379-11.3418,9.8926Z"></path><path class="f310b0f0-1213-42f7-9fa9-18ddbc4e6e8c" d="M469.9,46.9445c0-4.0937,2.4726-6.2255,6.2256-6.2255s6.2255,2.1318,6.2255,6.2255v51.169c0,4.0932-2.4736,6.2256-6.2255,6.2256S469.9,102.2067,469.9,98.1135Z"></path></g></g></svg>